<?xml version="1.0" encoding="UTF-8"?>
<svg id="Data" xmlns="http://www.w3.org/2000/svg" viewBox="0 0 48 48">
  <defs>
    <style>
      .cls-1 {
        fill: #fff;
      }

      .cls-2 {
        fill: #d96421;
      }
    </style>
  </defs>
  <g>
    <g id="Angles">
      <rect class="cls-2" x="3" y="3" width="42" height="42"/>
    </g>
    <g>
      <path class="cls-1" d="M14.1,26.9c3.4,0,6.1,2.7,6.1,6s-2.7,6.1-6.1,6.1-6.1-2.7-6.1-6.1c0-3.3,2.7-6,6.1-6M14.1,25.9c-3.9,0-7.1,3.2-7.1,7,0,3.9,3.2,7.1,7.1,7.1s7.1-3.2,7.1-7.1c0-3.8-3.2-7-7.1-7h0Z"/>
      <path class="cls-1" d="M36.8,12.7c0,2.5-4.9,4.7-10.6,4.7s-10.6-2.1-10.6-4.7c0-2.5,4.9-4.7,10.6-4.7s10.6,2.1,10.6,4.7Z"/>
      <path class="cls-1" d="M36.8,28.9v4.5c0,3.1-4.7,5.7-10.6,5.7-2.2,0-4.2-.4-5.9-1,1.2-1.4,1.9-3.2,1.9-5.1v-.6c1.3.3,2.6.4,4.1.4,4.7,0,8.7-1.60001,10.5-3.90001Z"/>
      <path class="cls-1" d="M36.8,15v3.9c0,3.1-4.7,5.7-10.6,5.7s-10.6-2.6-10.6-5.7v-3.9c1.8,2,5.8,3.3,10.6,3.3s8.8-1.3,10.6-3.3Z"/>
      <path class="cls-1" d="M36.8,21.6v4.5c0,3.1-4.7,5.7-10.6,5.7-1.5,0-2.9-.2-4.2-.5-.7-3.1-3.2-5.6-6.4-6.2v-3.5c1.8,2.3,5.8,3.9,10.6,3.9s8.8-1.5,10.6-3.9Z"/>
    </g>
  </g>
  <polygon class="cls-1" points="18.4 33 17.1 32.3 17.7 34.4 14.6 32.6 14.6 29.1 16.1 30.6 16.1 29.2 14.1 27.2 12.1 29.2 12.1 30.6 13.6 29.1 13.6 32.6 10.6 34.4 11.1 32.3 11.1 32.3 9.9 33 9.1 35.7 11.9 36.5 13.1 35.8 11.1 35.2 14.1 33.5 17.2 35.2 15.1 35.8 16.4 36.5 19.1 35.7 18.4 33"/>
</svg>