<?xml version="1.0" encoding="UTF-8"?>
<svg id="Data" xmlns="http://www.w3.org/2000/svg" viewBox="0 0 48 54">
  <defs>
    <style>
      .cls-1 {
        fill: #fff;
      }

      .cls-2 {
        fill: #76b900;
      }

      .cls-3 {
        fill: #d96421;
      }
    </style>
  </defs>
  <rect class="cls-3" x="2.99842" y="3" width="42" height="42"/>
  <rect class="cls-2" x="3.0024" y="46.9367" width="42" height="4"/>
  <rect class="cls-2" x="3.0024" y="46.9367" width="42" height="4"/>
  <path class="cls-1" d="M34.49836,29.35265v4.45996c0,3.13965-4.70996,5.68994-10.5,5.68994s-10.5-2.55029-10.5-5.68994v-4.45996c1.77002,2.33008,5.76001,3.91992,10.5,3.91992s8.72998-1.58984,10.5-3.91992Z"/>
  <g>
    <path class="cls-1" d="M34.49836,13.16222c0,2.53027-4.81006,4.66016-10.5,4.66016s-10.5-2.12988-10.5-4.66016c0-2.52979,4.81006-4.65967,10.5-4.65967s10.5,2.12988,10.5,4.65967Z"/>
    <path class="cls-1" d="M34.49836,15.50255v3.8501c0,3.13965-4.70996,5.69971-10.5,5.69971s-10.5-2.56006-10.5-5.69971v-3.8501c1.77002,1.97998,5.76001,3.31982,10.5,3.31982s8.72998-1.33984,10.5-3.31982Z"/>
    <path class="cls-1" d="M34.49836,22.12267v4.45996c0,3.14014-4.70996,5.68994-10.5,5.68994s-10.5-2.5498-10.5-5.68994v-4.45996c1.77002,2.33984,5.76001,3.92969,10.5,3.92969s8.72998-1.58984,10.5-3.92969Z"/>
  </g>
</svg>