<?xml version="1.0" encoding="UTF-8"?>
<svg id="NIMS" xmlns="http://www.w3.org/2000/svg" viewBox="0 0 48 54">
  <defs>
    <style>
      .cls-1 {
        fill: #fff;
      }

      .cls-2 {
        fill: #76b900;
      }
    </style>
  </defs>
  <g>
    <g>
      <polygon class="cls-1" points="45.0183 11.98779 45.0183 35.9978 24.0183 48.00781 3.0183 35.9978 3.0183 11.98779 24.0183 -.01221 45.0183 11.98779"/>
      <path class="cls-2" d="M24.01927-.01654L3.0183,11.98638v24.01481l21.00098,12.00591,20.99902-12.00591V11.98638L24.01927-.01654ZM44.0183,35.42064l-19.5,11.14886v-6.13944h-1v6.13834l-19.5-11.14782V13.25476l5.14014,3.43394.5498-.84038-5.27271-3.51687L24.01927,1.13582l19.63574,11.16322-5.32672,3.60074.54999.82862,5.14001-3.42317v22.11542Z"/>
    </g>
    <polygon class="cls-2" points="24.0183 53.99139 45.0183 41.99139 45.0183 37.99139 24.0183 49.99139 3.0183 37.99139 3.0183 41.99139 24.0183 53.99139"/>
  </g>
  <path class="cls-2" d="M33.40002,26.88348c-.22003,0-.43005.03998-.63.10999l-1.77002-2.76996v-.01001l1.77002-2.92999c.19995.06.40997.09998.63.09998,1.09998,0,2-.90002,2-2s-.90002-2-2-2c-.57001,0-1.09003.23999-1.45001.63l-6.12-3.53003c.04999-.15997.07001-.32996.07001-.5,0-1.09998-.90002-2-2-2-1.10004,0-2,.90002-2,2,0,.19.02997.38.07996.55005l-6.02997,3.47998c-.35999-.39001-.88-.63-1.45001-.63-1.09998,0-2,.90002-2,2s.90002,2,2,2c.16998,0,.34003-.02002.48999-.06l1.82001,3.01001-1.67999,2.64996c-.20001-.06-.41003-.09998-.63-.09998-1.09998,0-2,.90002-2,2s.90002,2,2,2c.52002,0,1-.20001,1.34998-.53003l6.13,3.98004c-.04999.16998-.07996.35999-.07996.54999,0,1.09998.89996,2,2,2,1.09998,0,2-.90002,2-2,0-.21997-.04004-.42999-.11005-.63l6.12-4.04999c.36005.41998.90002.67999,1.49005.67999,1.09998,0,2-.90002,2-2s-.90002-2-2-2ZM22.48999,15.39349l-3.58002,5.64001-2.44995-1.23004c.01996-.13.03998-.27997.03998-.41998,0-.16998-.02002-.34003-.07001-.5l6.06-3.48999ZM21.91998,24.34351c.01001.08997.02002.16998.04999.25l-2.93994,1.46997-1.04004-1.71997,1.28003-2.02002,2.66998,1.34003c-.02002.12994-.03998.27997-.03998.41998,0,.08997.00995.17999.01996.26001ZM15.87,20.8335c.04999-.04004.09003-.09003.13-.14001l2.38,1.17999-.96002,1.51001-1.54999-2.54999ZM15.90997,27.62347l.06-.08997,1.42004-2.24005.73999,1.22003-2.13,1.06-.09003.04999ZM16.39001,29.51349c.07001-.20001.10999-.41003.10999-.63,0-.14001-.02002-.28998-.03998-.41998l2.17999-1.09003,3.57996,5.91998-5.82996-3.77997ZM23.40002,32.95349c-.06.01001-.12.02997-.18005.04999l-3.66998-6.08997,2.91003-1.45001c.25.26996.57001.45996.94.54999v6.94ZM23.40002,22.1535c-.40002.09998-.75.32001-1,.62l-2.59003-1.29004,3.53998-5.57996c.01001.01001.03003.01001.05005.01001v6.23999ZM30.39001,23.2735l-.85004-1.33002,2.39001-1.21997-1.53998,2.54999ZM25.88,23.80347l2.76001-1.40997,1.17999,1.83002v.00995l-1.07001,1.77002-2.90997-1.46002c.03998-.14996.06-.29999.06-.45996,0-.10004-.01001-.19-.02002-.28003ZM25.34998,15.35345l6.12,3.53003c-.04999.15997-.06995.33002-.06995.5,0,.15997.01996.31.06.46002l-2.46002,1.25h-.01001l-3.65997-5.72003q.01001-.01001.01996-.02002ZM24.40002,15.91351c.02997,0,.06-.01001.07996-.02002l3.62,5.65997-2.60999,1.33002c-.26001-.35999-.64001-.62-1.08997-.72998v-6.23999ZM24.53003,32.98346c-.04004-.00995-.08002-.02997-.13-.02997v-6.94c.38-.09003.71997-.29999.96997-.59003l2.85999,1.42999-3.69995,6.13ZM25.57001,33.20349l3.56-5.90002,2.31,1.16003c-.02002.13-.03998.27997-.03998.41998,0,.15002.01996.29999.04999.44l-5.88,3.88ZM31.89001,27.57349l-2.23999-1.12.76996-1.28003,1.51001,2.36005c-.01001.00995-.02002.02997-.03998.03998Z"/>
</svg>